<svg width="24" height="24" fill="none" xmlns="http://www.w3.org/2000/svg"><path fill-rule="evenodd" clip-rule="evenodd" d="M20.333 3.85c.954 0 1.735.755 1.811 1.712l.006.152v12.572c0 .977-.733 1.78-1.667 1.858l-.15.006H3.667c-.954 0-1.735-.754-1.81-1.711l-.007-.153V5.714c0-.977.734-1.78 1.668-1.858l.149-.006h16.666zm.405 7.157H3.261v7.279c0 .203.14.373.325.413l.08.008h16.667a.412.412 0 00.398-.336l.008-.085v-7.279zM8.25 15.28c.282 0 .515.211.56.485l.007.093v.286a.577.577 0 01-.475.57l-.092.008h-2.5a.572.572 0 01-.56-.485l-.007-.093v-.286c0-.286.206-.526.475-.57l.092-.008h2.5zm6.667 0c.281 0 .515.211.559.485l.007.093v.286a.577.577 0 01-.474.57l-.092.008h-4.723a.572.572 0 01-.559-.485l-.007-.093v-.286c0-.286.205-.526.475-.57l.091-.008h4.723zm5.416-9.986H3.667a.412.412 0 00-.397.337l-.009.084v1.564h17.477l.001-1.564a.42.42 0 00-.325-.412l-.08-.009z" fill="#2A8088"/></svg>