<svg width="23" height="15" fill="none" xmlns="http://www.w3.org/2000/svg"><path fill="#fff" d="M.296 0h21.926v14.815H.296z" opacity=".01"/><path fill="#FF5F00" d="M8.322 2.512h5.751v9.393H8.322z"/><path d="M8.915 7.21a5.963 5.963 0 012.281-4.696 5.973 5.973 0 100 9.393 5.964 5.964 0 01-2.281-4.698z" fill="#EB001B"/><path fill-rule="evenodd" clip-rule="evenodd" d="M20.29 10.719v.192h-.036v-.192h-.078v-.04h.197v.04h-.083zm.384-.04v.232h-.042v-.175l-.065.15h-.044l-.065-.15v.175h-.043v-.232h.06l.07.166.069-.166h.06z" fill="#F79E1B"/><path d="M20.861 7.21a5.973 5.973 0 01-9.665 4.695 5.973 5.973 0 000-9.393 5.973 5.973 0 019.665 4.696v.002z" fill="#F79E1B"/></svg>